<svg xmlns="http://www.w3.org/2000/svg" viewBox="0 0 64 64" role="img" aria-label="ShaSec">
  <rect width="64" height="64" rx="12" fill="#05070A"/>
  <g fill="none" stroke="#3FC466" stroke-width="4.2" stroke-linecap="round" stroke-linejoin="round">
    <path d="M42 18.5c0-5.2-4.5-9-10.8-9-5.2 0-9.6 2.4-11.6 6.2"/>
    <path d="M19.8 22.2c1.5-2.8 4.6-4.6 8.4-4.6 4.8 0 8.2 2.6 8.2 6.2 0 3.2-2.1 5.1-7.4 6.6l-5.2 1.5C17.2 34.1 14 37.4 14 43.2 14 50 19.4 55 28.2 55c6.2 0 11-2.8 13.2-7.2"/>
    <path d="M41.5 41.5c-1.4 3.2-4.8 5.3-9.2 5.3-5.4 0-9-3.1-9-7.2 0-3.4 2.3-5.5 7.8-7.1l4.6-1.3"/>
  </g>
  <circle cx="31.2" cy="9.5" r="2.1" fill="#3FC466"/>
  <circle cx="19.8" cy="22.2" r="2.1" fill="#3FC466"/>
  <circle cx="41.5" cy="41.5" r="2.1" fill="#3FC466"/>
  <circle cx="41.4" cy="47.8" r="2.1" fill="#3FC466"/>
</svg>
